<svg width="103" height="103" viewBox="0 0 103 103" fill="none" xmlns="http://www.w3.org/2000/svg">
<path d="M101.027 99.3095C85.8478 100.932 73.8096 94.4523 73.6894 94.3868C73.2802 94.1624 72.7964 94.1017 72.3425 94.2223C72.1511 94.2718 53.0557 99.2057 37.6773 95.9154C28.0902 93.8605 19.0466 87.3493 12.4434 82.5959C11.5562 81.957 10.7162 81.3524 9.92754 80.7958C8.84979 80.0363 7.13666 79.4037 5.62566 78.8463C4.9472 78.5963 4.01774 78.2537 3.81892 78.1331C3.64579 78.003 3.55135 77.8105 3.55135 77.5917V73.6233C3.63667 70.4831 17.2937 22.1653 19.4111 16.0183C19.4632 15.9456 19.667 15.8034 19.817 15.7347L46.8435 3.83518L55.5806 14.8011C56.0114 15.3698 55.9708 16.1636 55.4854 16.6875L46.8518 26.0187C46.2868 26.6304 45.3358 26.6967 44.7452 26.2215L41.2543 23.1189C40.8459 22.7555 40.2644 22.6349 39.7176 22.7315C39.1709 22.8258 38.6813 23.2019 38.4294 23.6795C38.137 24.2329 35.4944 24.9126 32.7972 24.9317L31.9182 24.8463C31.2182 24.7656 30.5315 25.1194 30.1869 25.7184C29.8423 26.3158 29.9002 27.0545 30.3343 27.5968C31.084 28.5311 31.668 29.2819 31.9994 29.7123L33.7275 58.0309C32.6563 62.0528 31.6747 63.1956 31.4311 63.424C30.7112 63.6436 30.1894 64.2913 30.1894 65.0572C30.1894 66.0028 30.9846 66.7695 31.9654 66.7695C33.9793 66.7695 35.6916 64.2178 37.0651 59.2368C51.1901 49.0479 63.5175 58.6634 64.4843 59.4548C68.97 63.7954 69.2484 66.6792 69.2575 66.807C69.279 67.735 70.066 68.4817 71.0336 68.4817C72.0144 68.4817 72.8097 67.715 72.8097 66.7695C72.8097 66.3757 72.6622 62.9975 68.0654 58.1171C72.3996 52.9787 77.336 50.0198 82.7712 49.3753C92.1404 48.2628 100.023 54.338 100.101 54.3987C100.862 54.9961 101.979 54.8867 102.599 54.1535C103.218 53.422 103.106 52.3454 102.348 51.7473C101.982 51.459 93.262 44.6954 82.3744 45.9724C76.0106 46.7167 70.298 50.035 65.3731 55.8418C61.3778 53.2215 49.9185 47.2917 37.1023 55.0472L35.5126 29.0039C35.4969 28.7228 35.4074 28.4497 35.255 28.2101C36.8439 28.0288 38.7368 27.6287 40.1094 26.7582L42.3983 28.7907C44.5265 30.5141 47.6487 30.3001 49.5002 28.2987L58.1346 18.9676C59.7268 17.2473 59.8601 14.647 58.4229 12.7495L48.7985 0.668624C48.2965 0.0377084 47.4076 -0.176324 46.6521 0.154308L18.3631 12.6113C18.0674 12.7367 16.5672 13.4363 16.0734 14.8674C15.0678 17.7776 0 69.5822 0 73.6177V77.5925C0 78.8679 0.593962 80.0474 1.62863 80.8285C2.14638 81.2198 2.91928 81.5153 4.35738 82.0448C5.53039 82.4785 7.13666 83.071 7.83086 83.5598C8.61121 84.1101 9.4421 84.7082 10.3185 85.3391C17.1793 90.2795 26.5751 97.0438 36.9085 99.2576C51.6167 102.409 68.8839 98.5988 72.5835 97.7003C75.0555 98.931 84.1231 103 95.9933 103C97.7453 103 99.5587 102.911 101.42 102.712C102.395 102.608 103.097 101.761 102.989 100.821C102.881 99.8806 101.999 99.1977 101.027 99.3095Z" fill="#DDA58C"/>
<path d="M92.6078 78.4393C92.5134 77.5838 91.7869 76.918 90.9045 76.918C89.9582 76.918 89.1909 77.6834 89.1909 78.6275C89.1909 79.7693 90.0357 83.6348 100.902 85.4416C100.998 85.4567 101.093 85.4647 101.186 85.4647C102.009 85.4647 102.734 84.8723 102.874 84.0367C103.029 83.1054 102.399 82.2251 101.466 82.0696C93.8666 80.8058 92.7093 78.6665 92.6078 78.4393Z" fill="#DDA58C"/>
<path d="M59.7045 87.2127C37.262 92.0072 27.6605 76.6891 27.2624 76.0361C26.7733 75.2283 25.7215 74.9684 24.9134 75.4532C24.1022 75.9396 23.8392 76.9897 24.3259 77.7982C24.4394 77.9864 27.1657 82.4516 32.9963 86.255C37.0126 88.8751 43.1382 91.5439 51.4241 91.5439C54.1832 91.5439 57.1828 91.2481 60.4222 90.556C61.3469 90.3582 61.9368 89.4492 61.7386 88.5259C61.5404 87.6034 60.626 87.0125 59.7045 87.2127Z" fill="#DDA58C"/>
</svg>
