<svg width="44" height="44" viewBox="0 0 44 44" fill="none" xmlns="http://www.w3.org/2000/svg">
<path d="M44 22C44 9.85159 34.1484 0 22 0C9.85159 0 0 9.85159 0 22C0 34.1484 9.85159 44 22 44C22.1292 44 22.2578 43.9973 22.3867 43.995V26.8689H17.6602V21.3605H22.3867V17.307C22.3867 12.606 25.2566 10.0473 29.45 10.0473C31.4582 10.0473 33.1843 10.197 33.6875 10.2638V15.177H30.7958C28.5145 15.177 28.0727 16.2613 28.0727 17.8522V21.3605H33.5277L32.8167 26.8689H28.0727V43.15C37.2683 40.5138 44 32.0419 44 22Z" fill="white"/>
</svg>
