<svg width="103" height="103" viewBox="0 0 103 103" fill="none" xmlns="http://www.w3.org/2000/svg">
<path d="M95.0282 6.52454H3.36073C2.65794 6.52454 2.08765 7.09364 2.08765 7.79762V17.983C2.08765 18.6869 2.65794 19.256 3.36073 19.256H7.1802V33.2609V99.4651C7.1802 100.169 7.7505 100.738 8.45328 100.738H18.6386H79.7503H89.9356C90.6396 100.738 91.2087 100.169 91.2087 99.4651V33.2609V19.256H95.0282C95.7322 19.256 96.3013 18.6869 96.3013 17.983V7.79762C96.3015 7.09364 95.7324 6.52454 95.0282 6.52454ZM17.3656 94.3725V98.192H9.7266V34.534H17.3656V94.3725ZM78.4772 98.192H19.912V95.6456H78.4772V98.192ZM36.4629 88.0066H35.424C35.9511 86.5285 37.3517 85.4602 39.0093 85.4602C41.1151 85.4602 42.8288 87.174 42.8288 89.2797C42.8288 91.3854 41.1151 93.0992 39.0093 93.0992C37.3517 93.0992 35.9511 92.0309 35.424 90.5528H36.4629C37.1657 90.5528 37.736 89.9837 37.736 89.2797C37.736 88.5757 37.1657 88.0066 36.4629 88.0066ZM60.28 88.3797C60.5283 88.628 60.8541 88.7529 61.1802 88.7529C61.5063 88.7529 61.8321 88.628 62.0804 88.3797L62.8176 87.6426C63.0594 88.1494 63.1995 88.7018 63.1995 89.28C63.1995 90.3009 62.8023 91.2596 62.0816 91.9803C60.592 93.4699 58.1693 93.4699 56.6797 91.9803C55.9578 91.2596 55.5606 90.3009 55.5606 89.28C55.5606 88.259 55.9578 87.3003 56.6785 86.5796C57.4233 85.8348 58.4011 85.4631 59.38 85.4631C59.9415 85.4631 60.498 85.6006 61.0148 85.8451L60.2802 86.5796C59.782 87.0773 59.782 87.882 60.28 88.3797ZM54.2872 85.4987C54.1116 85.2631 53.9347 85.0277 53.7258 84.815C54.3839 84.6266 55.0308 84.4127 55.6534 84.1478C55.3861 84.3414 55.1199 84.5385 54.8781 84.7792C54.6551 85.0021 54.4718 85.2504 54.2872 85.4987ZM54.3178 93.0994H54.2555C54.2658 93.0868 54.2772 93.0753 54.2872 93.0612C54.2973 93.0739 54.3087 93.0853 54.3178 93.0994ZM49.1945 82.9141C41.4727 82.9141 35.1896 76.631 35.1896 68.9093C35.1896 63.7389 36.981 61.4956 38.1929 60.5687C38.7811 62.2786 39.6799 63.5326 40.8742 64.3092C42.5674 65.408 44.1907 65.0986 44.3702 65.0616C44.6643 64.9967 44.9279 64.8312 45.1112 64.5918C49.4616 58.9225 50.3324 53.1575 50.4699 50.2852C54.1789 51.6898 63.1993 56.3943 63.1993 68.9093C63.1993 76.631 56.9162 82.9141 49.1945 82.9141ZM50.0947 91.9803L50.8292 92.7149C49.411 93.3883 47.6655 93.1529 46.4929 91.9803C45.7722 91.2596 45.375 90.3009 45.375 89.28C45.375 88.259 45.7722 87.3003 46.4929 86.5796C47.2377 85.8348 48.2155 85.4631 49.1945 85.4631C50.1722 85.4631 51.1512 85.8348 51.896 86.5796C52.6167 87.3003 53.0139 88.259 53.0139 89.28C53.0139 89.8579 52.8738 90.4105 52.632 90.9173L51.8948 90.1802C51.3971 89.6824 50.5912 89.6824 50.0947 90.1802C49.5969 90.6779 49.5969 91.4824 50.0947 91.9803ZM44.1007 85.4987C43.7176 84.9842 43.2642 84.5297 42.746 84.1516C43.3647 84.4139 44.009 84.6264 44.6634 84.8136C44.4533 85.0274 44.2776 85.2631 44.1007 85.4987ZM44.1325 93.0994H44.0687C44.079 93.0868 44.0916 93.0739 44.1005 93.0612C44.1107 93.0739 44.1222 93.0865 44.1325 93.0994ZM78.4772 93.0994H64.4418C65.2744 92.0006 65.7454 90.6829 65.7454 89.28C65.7454 87.5791 65.0835 85.9811 63.8815 84.7794C62.1334 83.0313 59.6178 82.5412 57.4113 83.2566C62.3831 80.397 65.7454 75.0436 65.7454 68.9095C65.7454 51.2303 49.6413 47.3359 49.4783 47.2977C49.0837 47.2098 48.6674 47.313 48.3604 47.5777C48.0536 47.8439 47.8918 48.2411 47.925 48.6472C47.9314 48.7185 48.4418 55.722 43.4332 62.5844C42.6376 62.5283 40.9838 61.9707 40.2516 58.4518C40.1129 57.8177 39.5056 57.3888 38.8678 57.4587C37.5539 57.6 32.6432 59.9605 32.6432 68.9095C32.6432 75.0448 36.007 80.3997 40.9799 83.2581C40.3562 83.053 39.7016 82.9143 39.0091 82.9143C35.4992 82.9141 32.6435 85.7699 32.6435 89.28C32.6435 90.7187 33.1412 92.0326 33.9497 93.0994H19.912V34.534H78.4772V93.0994ZM88.6625 98.192H81.0236V94.3725V34.534H88.6625V98.192ZM88.6625 24.3488H87.3895C86.6855 24.3488 86.1164 24.9179 86.1164 25.6219C86.1164 26.3259 86.6855 26.895 87.3895 26.895H88.6625V31.9876H79.7505H18.6389H9.7266V26.895H10.9997C11.7025 26.895 12.2728 26.3259 12.2728 25.6219C12.2728 24.9179 11.7025 24.3488 10.9997 24.3488H9.7266V19.256H88.6625V24.3488ZM93.7551 16.7099H89.9356H8.45352H4.63404V9.07093H93.7551V16.7099Z" fill="#C26E20"/>
<path d="M59.3798 67.636C58.677 67.636 58.1067 68.2051 58.1067 68.9091C58.1067 73.8221 54.1089 77.8211 49.1947 77.8211C48.4919 77.8211 47.9216 78.3902 47.9216 79.0942C47.9216 79.7981 48.4919 80.3672 49.1947 80.3672C55.5121 80.3672 60.6531 75.2274 60.6531 68.9088C60.6529 68.2051 60.0826 67.636 59.3798 67.636Z" fill="#C26E20"/>
<path d="M84.8431 82.9138C84.1404 82.9138 83.5701 83.4829 83.5701 84.1869V94.3723C83.5701 95.0762 84.1404 95.6453 84.8431 95.6453C85.5459 95.6453 86.1162 95.0762 86.1162 94.3723V84.1869C86.1162 83.4829 85.5459 82.9138 84.8431 82.9138Z" fill="#C26E20"/>
<path d="M13.5463 82.9138C12.8435 82.9138 12.2732 83.4829 12.2732 84.1869V94.3723C12.2732 95.0762 12.8435 95.6453 13.5463 95.6453C14.2491 95.6453 14.8193 95.0762 14.8193 94.3723V84.1869C14.8193 83.4829 14.2491 82.9138 13.5463 82.9138Z" fill="#C26E20"/>
<path d="M51.7409 11.6171H49.1945C48.4917 11.6171 47.9214 12.1862 47.9214 12.8901C47.9214 13.5941 48.4917 14.1635 49.1945 14.1635H51.7409C52.4437 14.1635 53.0139 13.5944 53.0139 12.8904C53.0139 12.1862 52.4437 11.6171 51.7409 11.6171Z" fill="#C26E20"/>
<path d="M84.8431 11.6171H82.2968C81.594 11.6171 81.0237 12.1862 81.0237 12.8901C81.0237 13.5941 81.594 14.1635 82.2968 14.1635H84.8431C85.5459 14.1635 86.1162 13.5944 86.1162 12.8904C86.1162 12.1862 85.5459 11.6171 84.8431 11.6171Z" fill="#C26E20"/>
<path d="M69.5653 24.3488H52.7799C52.2528 22.8706 50.8522 21.8024 49.1946 21.8024C47.5369 21.8024 46.1364 22.8706 45.6093 24.3488H28.8241C28.1213 24.3488 27.551 24.9179 27.551 25.6218C27.551 26.3258 28.1213 26.8949 28.8241 26.8949H45.6095C46.1366 28.3731 47.5369 29.4413 49.1946 29.4413C50.8522 29.4413 52.2528 28.3731 52.7799 26.8949H69.5653C70.2681 26.8949 70.8383 26.3258 70.8383 25.6218C70.8383 24.9179 70.2681 24.3488 69.5653 24.3488ZM49.1946 26.8949C48.493 26.8949 47.9215 26.3246 47.9215 25.6218C47.9215 24.9191 48.4932 24.3488 49.1946 24.3488C49.8959 24.3488 50.4676 24.9191 50.4676 25.6218C50.4679 26.3246 49.8962 26.8949 49.1946 26.8949Z" fill="#C26E20"/>
</svg>
