<svg width="44" height="44" viewBox="0 0 44 44" fill="none" xmlns="http://www.w3.org/2000/svg">
<path d="M26 22C26 24.2092 24.2092 26 22 26C19.7908 26 18 24.2092 18 22C18 19.7908 19.7908 18 22 18C24.2092 18 26 19.7908 26 22Z" fill="white"/>
<path d="M31.5089 14.806C31.3135 14.2764 31.0017 13.797 30.5965 13.4035C30.203 12.9983 29.7239 12.6865 29.194 12.4911C28.7642 12.3241 28.1185 12.1254 26.9293 12.0713C25.6428 12.0126 25.2571 12 22.0002 12C18.7429 12 18.3572 12.0123 17.0711 12.071C15.8818 12.1254 15.2358 12.3241 14.8063 12.4911C14.2764 12.6865 13.797 12.9983 13.4038 13.4035C12.9987 13.797 12.6868 14.2761 12.4911 14.806C12.3241 15.2358 12.1254 15.8818 12.0713 17.0711C12.0126 18.3572 12 18.7429 12 22.0002C12 25.2571 12.0126 25.6428 12.0713 26.9293C12.1254 28.1185 12.3241 28.7642 12.4911 29.194C12.6868 29.7239 12.9983 30.203 13.4035 30.5965C13.797 31.0017 14.2761 31.3135 14.806 31.5089C15.2358 31.6762 15.8818 31.8749 17.0711 31.929C18.3572 31.9877 18.7426 32 21.9998 32C25.2574 32 25.6431 31.9877 26.9289 31.929C28.1182 31.8749 28.7642 31.6762 29.194 31.5089C30.2578 31.0986 31.0986 30.2578 31.5089 29.194C31.6759 28.7642 31.8746 28.1185 31.929 26.9293C31.9877 25.6428 32 25.2571 32 22.0002C32 18.7429 31.9877 18.3572 31.929 17.0711C31.8749 15.8818 31.6762 15.2358 31.5089 14.806ZM22.0002 28.2634C18.5407 28.2634 15.7363 25.4593 15.7363 21.9998C15.7363 18.5404 18.5407 15.7363 22.0002 15.7363C25.4593 15.7363 28.2637 18.5404 28.2637 21.9998C28.2637 25.4593 25.4593 28.2634 22.0002 28.2634ZM28.5114 16.9524C27.703 16.9524 27.0476 16.297 27.0476 15.4886C27.0476 14.6803 27.703 14.0249 28.5114 14.0249C29.3197 14.0249 29.9751 14.6803 29.9751 15.4886C29.9748 16.297 29.3197 16.9524 28.5114 16.9524Z" fill="white"/>
<path d="M22 0C9.85159 0 0 9.85159 0 22C0 34.1484 9.85159 44 22 44C34.1484 44 44 34.1484 44 22C44 9.85159 34.1484 0 22 0ZM34.5566 27.2083C34.4955 28.5531 34.2817 29.4712 33.9695 30.2748C33.3132 31.9718 31.9718 33.3132 30.2748 33.9695C29.4715 34.2817 28.5531 34.4952 27.2086 34.5566C25.8615 34.618 25.4311 34.6328 22.0003 34.6328C18.5692 34.6328 18.1392 34.618 16.7917 34.5566C15.4473 34.4952 14.5288 34.2817 13.7255 33.9695C12.8822 33.6523 12.1189 33.1551 11.4878 32.5122C10.8452 31.8815 10.3481 31.1178 10.0309 30.2748C9.71866 29.4715 9.50482 28.5531 9.44373 27.2086C9.38162 25.8611 9.36719 25.4308 9.36719 22C9.36719 18.5692 9.38162 18.1389 9.44339 16.7917C9.50449 15.4469 9.71799 14.5288 10.0302 13.7252C10.3474 12.8822 10.8449 12.1185 11.4878 11.4878C12.1185 10.8449 12.8822 10.3477 13.7252 10.0305C14.5288 9.71832 15.4469 9.50482 16.7917 9.44339C18.1389 9.38196 18.5692 9.36719 22 9.36719C25.4308 9.36719 25.8611 9.38196 27.2083 9.44373C28.5531 9.50482 29.4712 9.71832 30.2748 10.0302C31.1178 10.3474 31.8815 10.8449 32.5126 11.4878C33.1551 12.1189 33.6526 12.8822 33.9695 13.7252C34.282 14.5288 34.4955 15.4469 34.5569 16.7917C34.6184 18.1389 34.6328 18.5692 34.6328 22C34.6328 25.4308 34.6184 25.8611 34.5566 27.2083Z" fill="white"/>
</svg>
