<svg width="102" height="102" viewBox="0 0 102 102" fill="none" xmlns="http://www.w3.org/2000/svg">
<path d="M16.9478 90.6308C16.5775 90.2601 16.0635 90.0471 15.5396 90.0471C15.0156 90.0471 14.5016 90.2601 14.1311 90.6308C13.7605 91.0016 13.5474 91.5154 13.5474 92.0393C13.5474 92.5633 13.7603 93.0772 14.1311 93.4476C14.5016 93.8181 15.0156 94.0315 15.5396 94.0315C16.0635 94.0315 16.5775 93.8183 16.9478 93.4476C17.3184 93.0772 17.5317 92.5633 17.5317 92.0393C17.5317 91.5154 17.3186 91.0014 16.9478 90.6308Z" fill="#439F34"/>
<path d="M93.5379 36.4447C93.1673 36.0739 92.6553 35.861 92.1294 35.861C91.6054 35.861 91.0915 36.0739 90.7209 36.4447C90.3506 36.8152 90.1372 37.3292 90.1372 37.8531C90.1372 38.3771 90.3504 38.8911 90.7209 39.2614C91.0915 39.632 91.6054 39.8453 92.1294 39.8453C92.6553 39.8453 93.1673 39.6322 93.5379 39.2614C93.9102 38.8911 94.1234 38.3771 94.1234 37.8531C94.1234 37.3292 93.9102 36.8152 93.5379 36.4447Z" fill="#439F34"/>
<path d="M101.415 0.583512C101.042 0.209977 100.535 0 100.006 0L50.9997 0.00258984C49.8996 0.00258984 49.0077 0.894691 49.0077 1.99478V7.69184L30.1239 12.7518C29.0611 13.0367 28.4304 14.129 28.7153 15.1916L38.5023 51.7168L30.0357 60.1834C28.9581 58.61 27.1488 57.5752 25.1022 57.5752H5.97783C2.68235 57.5752 0.00146484 60.2563 0.00146484 63.5516V96.0234C0.00146484 99.3189 2.68235 102 5.97783 102H25.1024C27.9021 102 30.2572 100.064 30.9027 97.4618L33.2714 99.5275C35.1 101.122 37.4428 102 39.8691 102H100.007C101.107 102 101.999 101.108 101.999 100.008V1.99219C101.998 1.46386 101.789 0.957047 101.415 0.583512ZM27.0942 96.0236C27.0942 97.1219 26.2005 98.0158 25.102 98.0158H5.97763C4.87914 98.0158 3.98544 97.1221 3.98544 96.0236V63.5518C3.98544 62.4533 4.87914 61.5596 5.97763 61.5596H13.5477V84.5086C13.5477 85.6087 14.4398 86.5008 15.5399 86.5008C16.64 86.5008 17.5321 85.6087 17.5321 84.5086V61.5596H25.1022C26.2007 61.5596 27.0944 62.4533 27.0944 63.5518V96.0236H27.0942ZM33.0793 16.0847L49.0077 11.8167V19.1987L47.6725 19.5565C47.1619 19.6934 46.727 20.0271 46.4629 20.4847C46.1987 20.9423 46.127 21.4859 46.2638 21.9963C47.0294 24.8533 45.3279 27.8004 42.4709 28.566C41.9599 28.703 41.5242 29.0373 41.2603 29.4959C40.9963 29.9543 40.9252 30.499 41.0632 31.0098L48.8286 59.7646H44.8303L42.7697 51.7034C42.7042 51.4468 42.5895 51.2104 42.4359 51.0048L33.0793 16.0847ZM49.0077 28.3347V45.145L45.3741 31.6907C46.892 30.907 48.1341 29.7344 49.0077 28.3347ZM77.6283 98.0156H39.8687C38.4055 98.0156 36.9924 97.4861 35.8895 96.5245L31.0786 92.3287V64.7754L39.7761 56.0779L41.3535 62.2497C41.579 63.1316 42.3733 63.7484 43.2835 63.7484L82.4507 63.7508C83.9887 63.7508 85.2398 65.0019 85.2398 66.5399C85.2398 68.0778 83.9887 69.3289 82.4507 69.3289H62.3814C61.2814 69.3289 60.3893 70.221 60.3893 71.3211C60.3893 72.4212 61.2814 73.3133 62.3814 73.3133H88.6863C90.2243 73.3133 91.4753 74.5644 91.4753 76.1024C91.4753 77.6403 90.2243 78.8914 88.6863 78.8914H62.3814C61.2814 78.8914 60.3893 79.7835 60.3893 80.8836C60.3893 81.9837 61.2814 82.8758 62.3814 82.8758H84.4236C85.9616 82.8758 87.2127 84.1269 87.2127 85.6649C87.2127 87.2028 85.9616 88.4539 84.4236 88.4539H62.3814C61.2814 88.4539 60.3893 89.346 60.3893 90.4461C60.3893 91.5462 61.2814 92.4383 62.3814 92.4383H77.6283C79.1662 92.4383 80.4173 93.6894 80.4173 95.2274C80.4171 96.7645 79.166 98.0156 77.6283 98.0156ZM98.0145 98.0156H98.0143H83.7983C84.1845 97.1644 84.4015 96.2207 84.4015 95.2266C84.4015 94.2325 84.1845 93.2888 83.7983 92.4375H84.4236C88.1584 92.4375 91.1968 89.399 91.1968 85.6643C91.1968 84.5749 90.9369 83.5456 90.4779 82.6328C93.3458 81.845 95.4593 79.2163 95.4593 76.102C95.4593 74.5911 94.9617 73.1944 94.1224 72.0668V46.8178C94.1224 45.7177 93.2303 44.8256 92.1302 44.8256C91.0301 44.8256 90.138 45.7177 90.138 46.8178V69.4873C89.6698 69.3847 89.1843 69.3289 88.6859 69.3289H88.6205C89.0068 68.4777 89.2238 67.534 89.2238 66.5399C89.2238 62.8049 86.1853 59.7666 82.4505 59.7666H79.2481C82.6486 58.3083 85.0368 54.9284 85.0368 51C85.0368 45.7428 80.76 41.4658 75.5028 41.4658C70.2458 41.4658 65.9688 45.7428 65.9688 51C65.9688 54.9284 68.3572 58.3083 71.7575 59.7666H60.8676V21.8868C64.4264 21.1112 67.2346 18.3032 68.01 14.7442H82.9954C83.7708 18.3032 86.5789 21.1112 90.1378 21.8868V28.0805C90.1378 29.1806 91.0299 30.0727 92.13 30.0727C93.2301 30.0727 94.1222 29.1806 94.1222 28.0805V20.1081C94.1222 19.0081 93.2301 18.116 92.13 18.116C89.1722 18.116 86.7662 15.7096 86.7662 12.752C86.7662 11.6519 85.8741 10.7598 84.774 10.7598H66.2315C65.1315 10.7598 64.2393 11.6519 64.2393 12.752C64.2393 15.7098 61.8332 18.116 58.8756 18.116C57.7755 18.116 56.8834 19.0081 56.8834 20.1081V59.7664H52.9923V3.98657L98.0145 3.98438V98.0156ZM75.5032 56.5498C72.443 56.5498 69.9535 54.0602 69.9535 51.0002C69.9535 47.9402 72.4432 45.4504 75.5032 45.4504C78.5632 45.4504 81.0528 47.94 81.0528 51C81.0528 54.06 78.5634 56.5498 75.5032 56.5498Z" fill="#289217"/>
</svg>
